<svg width="21" height="21" viewBox="0 0 21 21" fill="none" xmlns="http://www.w3.org/2000/svg">
<g clip-path="url(#clip0_13_346)">
<path d="M17.5 14.875H19.25V16.625H1.75V14.875H3.5V8.75C3.5 6.89348 4.2375 5.11301 5.55025 3.80025C6.86301 2.4875 8.64348 1.75 10.5 1.75C12.3565 1.75 14.137 2.4875 15.4497 3.80025C16.7625 5.11301 17.5 6.89348 17.5 8.75V14.875ZM15.75 14.875V8.75C15.75 7.35761 15.1969 6.02226 14.2123 5.03769C13.2277 4.05312 11.8924 3.5 10.5 3.5C9.10761 3.5 7.77226 4.05312 6.78769 5.03769C5.80312 6.02226 5.25 7.35761 5.25 8.75V14.875H15.75ZM7.875 18.375H13.125V20.125H7.875V18.375Z" fill="#505050"/>
</g>
<defs>
<clipPath id="clip0_13_346">
<rect width="21" height="21" fill="white"/>
</clipPath>
</defs>
</svg>
