<svg width="21" height="21" viewBox="0 0 21 21" fill="none" xmlns="http://www.w3.org/2000/svg">
<g clip-path="url(#clip0_13_343)">
<path d="M5.64812 16.625L1.75 19.6875V3.5C1.75 3.26794 1.84219 3.04538 2.00628 2.88128C2.17038 2.71719 2.39294 2.625 2.625 2.625H18.375C18.6071 2.625 18.8296 2.71719 18.9937 2.88128C19.1578 3.04538 19.25 3.26794 19.25 3.5V15.75C19.25 15.9821 19.1578 16.2046 18.9937 16.3687C18.8296 16.5328 18.6071 16.625 18.375 16.625H5.64812ZM5.04262 14.875H17.5V4.375H3.5V16.0869L5.04262 14.875ZM9.625 8.75H11.375V10.5H9.625V8.75ZM6.125 8.75H7.875V10.5H6.125V8.75ZM13.125 8.75H14.875V10.5H13.125V8.75Z" fill="#505050"/>
</g>
<defs>
<clipPath id="clip0_13_343">
<rect width="21" height="21" fill="white"/>
</clipPath>
</defs>
</svg>
