<svg width="21" height="21" viewBox="0 0 21 21" fill="none" xmlns="http://www.w3.org/2000/svg">
<g clip-path="url(#clip0_13_352)">
<path d="M5.04262 14.875H17.5V4.375H3.5V16.0869L5.04262 14.875ZM5.64812 16.625L1.75 19.6875V3.5C1.75 3.26794 1.84219 3.04538 2.00628 2.88128C2.17038 2.71719 2.39294 2.625 2.625 2.625H18.375C18.6071 2.625 18.8296 2.71719 18.9937 2.88128C19.1578 3.04538 19.25 3.26794 19.25 3.5V15.75C19.25 15.9821 19.1578 16.2046 18.9937 16.3687C18.8296 16.5328 18.6071 16.625 18.375 16.625H5.64812ZM9.625 12.25H11.375V14H9.625V12.25ZM7.49613 7.71137C7.60981 7.14244 7.88272 6.61749 8.2831 6.1976C8.68348 5.77772 9.19486 5.48016 9.75775 5.33956C10.3206 5.19896 10.9119 5.2211 11.4627 5.4034C12.0135 5.5857 12.5012 5.92066 12.869 6.36932C13.2369 6.81797 13.4698 7.36186 13.5406 7.9377C13.6114 8.51354 13.5172 9.09765 13.2691 9.62207C13.0209 10.1465 12.6289 10.5896 12.1386 10.9C11.6484 11.2103 11.0802 11.375 10.5 11.375H9.625V9.625H10.5C10.7486 9.62498 10.992 9.55438 11.202 9.42141C11.412 9.28844 11.58 9.09857 11.6863 8.87389C11.7926 8.6492 11.8329 8.39895 11.8026 8.15224C11.7722 7.90553 11.6725 7.67251 11.5149 7.4803C11.3572 7.28808 11.1483 7.14458 10.9123 7.06647C10.6763 6.98837 10.423 6.97888 10.1819 7.03912C9.94071 7.09935 9.72161 7.22683 9.55007 7.40671C9.37853 7.5866 9.26159 7.8115 9.21288 8.05525L7.49613 7.71137Z" fill="#505050"/>
</g>
<defs>
<clipPath id="clip0_13_352">
<rect width="21" height="21" fill="white"/>
</clipPath>
</defs>
</svg>
