<svg width="21" height="21" viewBox="0 0 21 21" fill="none" xmlns="http://www.w3.org/2000/svg">
<g clip-path="url(#clip0_13_340)">
<path d="M9.41325 10.3493L16.2811 3.48145L17.5184 4.7187L16.2811 5.95682L18.4459 8.12157L17.2086 9.35969L15.043 7.19407L13.8058 8.43132L15.6616 10.2872L14.4244 11.5253L12.5685 9.66857L10.6505 11.5866C11.2459 12.4913 11.4847 13.5847 11.3207 14.6553C11.1567 15.7259 10.6015 16.6977 9.76261 17.3827C8.92368 18.0677 7.86055 18.4174 6.77878 18.364C5.69701 18.3106 4.67345 17.8581 3.906 17.0938C3.1369 16.3276 2.68015 15.3028 2.62452 14.2186C2.56889 13.1344 2.91836 12.0682 3.60501 11.2273C4.29166 10.3864 5.26642 9.83083 6.33987 9.66857C7.41331 9.5063 8.50874 9.74894 9.41325 10.3493ZM8.85588 15.8557C9.11078 15.6146 9.31476 15.3248 9.45576 15.0035C9.59676 14.6823 9.67192 14.336 9.6768 13.9851C9.68168 13.6343 9.61618 13.2861 9.48416 12.961C9.35215 12.6359 9.15631 12.3406 8.90821 12.0925C8.66011 11.8444 8.36479 11.6485 8.03971 11.5165C7.71463 11.3845 7.36638 11.319 7.01555 11.3239C6.66472 11.3288 6.31843 11.4039 5.99715 11.5449C5.67586 11.6859 5.3861 11.8899 5.145 12.1448C4.66684 12.6399 4.40225 13.303 4.40823 13.9912C4.41421 14.6795 4.69028 15.3379 5.17698 15.8246C5.66367 16.3113 6.32205 16.5874 7.01032 16.5933C7.69859 16.5993 8.36167 16.3347 8.85675 15.8566L8.85588 15.8557Z" fill="#505050"/>
</g>
<defs>
<clipPath id="clip0_13_340">
<rect width="21" height="21" fill="white"/>
</clipPath>
</defs>
</svg>
