<svg width="12" height="13" viewBox="0 0 12 13" fill="none" xmlns="http://www.w3.org/2000/svg">
<path d="M7.03358 1.09254L8.2134 3.03084C8.38176 3.30363 8.64284 3.50032 8.94448 3.58164L11.0797 4.1508C11.2796 4.20389 11.4634 4.30877 11.6139 4.45566C11.7644 4.60255 11.8767 4.78668 11.9403 4.99089C12.004 5.1951 12.017 5.41276 11.978 5.62358C11.939 5.83441 11.8494 6.03154 11.7175 6.19663L10.3133 7.96444C10.114 8.21362 10.0139 8.53268 10.0335 8.85621L10.1722 11.146C10.1855 11.3601 10.1465 11.5742 10.0588 11.7684C9.97121 11.9627 9.8378 12.1307 9.671 12.2568C9.5042 12.383 9.30944 12.4632 9.10483 12.49C8.90023 12.5168 8.69245 12.4894 8.50079 12.4102L6.45126 11.5656C6.16158 11.4451 5.83842 11.4451 5.54874 11.5656L3.49921 12.4102C3.30741 12.4892 3.09956 12.5166 2.89489 12.4897C2.69022 12.4629 2.49536 12.3827 2.32842 12.2566C2.16147 12.1305 2.02782 11.9626 1.93987 11.7685C1.85193 11.5743 1.81254 11.3602 1.82533 11.146L1.96649 8.85621C1.98607 8.53268 1.88596 8.21362 1.68667 7.96444L0.282519 6.19663C0.1506 6.03154 0.0609571 5.83441 0.0219924 5.62358C-0.0169724 5.41276 -0.00400582 5.1951 0.0596588 4.99089C0.123323 4.78668 0.235617 4.60255 0.386101 4.45566C0.536586 4.30877 0.720358 4.20389 0.920294 4.1508L3.05556 3.58164C3.3572 3.50032 3.61824 3.30363 3.7866 3.03084L4.96642 1.09254C5.07665 0.911057 5.22923 0.761547 5.40995 0.65794C5.59068 0.554334 5.79366 0.5 6 0.5C6.20634 0.5 6.40932 0.554334 6.59005 0.65794C6.77077 0.761547 6.92335 0.911057 7.03358 1.09254Z" fill="url(#paint0_linear_2024_9128)"/>
<defs>
<linearGradient id="paint0_linear_2024_9128" x1="12.4701" y1="12.5" x2="-0.837243" y2="1.1121" gradientUnits="userSpaceOnUse">
<stop stop-color="#FFA800"/>
<stop offset="1" stop-color="#FFDB20"/>
</linearGradient>
</defs>
</svg>
