<svg width="21" height="21" viewBox="0 0 21 21" fill="none" xmlns="http://www.w3.org/2000/svg">
<g clip-path="url(#clip0_13_349)">
<path d="M4.375 10.9375C4.375 11.2114 4.77838 11.6882 5.71375 12.1564C6.92475 12.7619 8.64237 13.125 10.5 13.125C12.3576 13.125 14.0752 12.7619 15.2862 12.1564C16.2216 11.6882 16.625 11.2114 16.625 10.9375V9.03788C15.1812 9.93038 12.9736 10.5 10.5 10.5C8.02638 10.5 5.81875 9.9295 4.375 9.03788V10.9375ZM16.625 13.4129C15.1812 14.3054 12.9736 14.875 10.5 14.875C8.02638 14.875 5.81875 14.3045 4.375 13.4129V15.3125C4.375 15.5864 4.77838 16.0632 5.71375 16.5314C6.92475 17.1369 8.64237 17.5 10.5 17.5C12.3576 17.5 14.0752 17.1369 15.2862 16.5314C16.2216 16.0632 16.625 15.5864 16.625 15.3125V13.4129ZM2.625 15.3125V6.5625C2.625 4.38813 6.15125 2.625 10.5 2.625C14.8488 2.625 18.375 4.38813 18.375 6.5625V15.3125C18.375 17.4869 14.8488 19.25 10.5 19.25C6.15125 19.25 2.625 17.4869 2.625 15.3125ZM10.5 8.75C12.3576 8.75 14.0752 8.38687 15.2862 7.78137C16.2216 7.31325 16.625 6.83637 16.625 6.5625C16.625 6.28863 16.2216 5.81175 15.2862 5.34362C14.0752 4.73812 12.3576 4.375 10.5 4.375C8.64237 4.375 6.92475 4.73812 5.71375 5.34362C4.77838 5.81175 4.375 6.28863 4.375 6.5625C4.375 6.83637 4.77838 7.31325 5.71375 7.78137C6.92475 8.38687 8.64237 8.75 10.5 8.75Z" fill="#505050"/>
</g>
<defs>
<clipPath id="clip0_13_349">
<rect width="21" height="21" fill="white"/>
</clipPath>
</defs>
</svg>
